<svg width="1194" height="643" viewBox="0 0 1194 643" fill="none" xmlns="http://www.w3.org/2000/svg">
<path d="M570 361.52H576.912V277.936L629.264 361.52H637.712V270H630.928V351.664L579.728 270H570V361.52Z" fill="white"/>
<path d="M797 361.52H804.168V319.792H821.96L850.632 361.52H858.568L829.512 319.28C843.208 317.36 853.192 310.32 853.192 295.088V294.576C853.192 276.912 839.88 270 822.088 270H797V361.52ZM804.168 314.032V275.888H822.472C836.68 275.888 846.024 280.496 846.024 294.576V295.088C846.024 308.4 837.192 314.032 822.472 314.032H804.168Z" fill="white"/>
<path d="M931.338 361.52H939.786L972.17 270H965.514L935.818 354.48L905.226 270H898.186L931.338 361.52Z" fill="white"/>
<path fill-rule="evenodd" clip-rule="evenodd" d="M692.875 361.52H747.787V355.632H700.043V317.488H736.907V311.6H700.043H692.875V361.52Z" fill="white"/>
<path fill-rule="evenodd" clip-rule="evenodd" d="M1019.38 361.52H1074.29V355.632H1026.54V317.488H1063.41V311.6H1026.54H1019.38V361.52Z" fill="white"/>
<rect x="1019.22" y="270.52" width="55" height="5" fill="#734CE2"/>
<rect x="693.224" y="270.52" width="55" height="5.18868" fill="#734CE2"/>
</svg>
